<svg xmlns="http://www.w3.org/2000/svg" xmlns:xlink="http://www.w3.org/1999/xlink" width="300" zoomAndPan="magnify" viewBox="0 0 224.87999 74.999997" height="100" preserveAspectRatio="xMidYMid meet" version="1.0"><defs><g/><clipPath id="01655fc325"><path d="M 0 0.0195312 L 224.761719 0.0195312 L 224.761719 74.980469 L 0 74.980469 Z M 0 0.0195312 " clip-rule="nonzero"/></clipPath><clipPath id="a49abfcad8"><path d="M 53.609375 48.421875 L 128.566406 48.421875 L 128.566406 59.664062 L 53.609375 59.664062 Z M 53.609375 48.421875 " clip-rule="nonzero"/></clipPath><clipPath id="b97d03d83d"><path d="M 96.121094 48.421875 L 171 48.421875 L 171 59.664062 L 96.121094 59.664062 Z M 96.121094 48.421875 " clip-rule="nonzero"/></clipPath><clipPath id="3307ff6c9a"><path d="M 9 0.0195312 L 38 0.0195312 L 38 17 L 9 17 Z M 9 0.0195312 " clip-rule="nonzero"/></clipPath><clipPath id="3ad5035c09"><path d="M 14.78125 -9.804688 L 42.363281 -0.113281 L 14.535156 79.097656 L -13.046875 69.40625 Z M 14.78125 -9.804688 " clip-rule="nonzero"/></clipPath><clipPath id="0f7ed9ece5"><path d="M 14.78125 -9.804688 L 42.363281 -0.113281 L 14.535156 79.097656 L -13.046875 69.40625 Z M 14.78125 -9.804688 " clip-rule="nonzero"/></clipPath><clipPath id="3b9699f26e"><path d="M 2 15 L 31 15 L 31 37 L 2 37 Z M 2 15 " clip-rule="nonzero"/></clipPath><clipPath id="ed64a061b3"><path d="M 14.78125 -9.804688 L 42.363281 -0.113281 L 14.535156 79.097656 L -13.046875 69.40625 Z M 14.78125 -9.804688 " clip-rule="nonzero"/></clipPath><clipPath id="035881199c"><path d="M 14.78125 -9.804688 L 42.363281 -0.113281 L 14.535156 79.097656 L -13.046875 69.40625 Z M 14.78125 -9.804688 " clip-rule="nonzero"/></clipPath><clipPath id="31960e38e3"><path d="M 0 36 L 24 36 L 24 58 L 0 58 Z M 0 36 " clip-rule="nonzero"/></clipPath><clipPath id="7021fa7fa9"><path d="M 14.78125 -9.804688 L 42.363281 -0.113281 L 14.535156 79.097656 L -13.046875 69.40625 Z M 14.78125 -9.804688 " clip-rule="nonzero"/></clipPath><clipPath id="4f5405a18a"><path d="M 14.78125 -9.804688 L 42.363281 -0.113281 L 14.535156 79.097656 L -13.046875 69.40625 Z M 14.78125 -9.804688 " clip-rule="nonzero"/></clipPath><clipPath id="c29629f57c"><path d="M 0 56 L 16 56 L 16 74.980469 L 0 74.980469 Z M 0 56 " clip-rule="nonzero"/></clipPath><clipPath id="50a1a0f5c2"><path d="M 14.78125 -9.804688 L 42.363281 -0.113281 L 14.535156 79.097656 L -13.046875 69.40625 Z M 14.78125 -9.804688 " clip-rule="nonzero"/></clipPath><clipPath id="79c917c750"><path d="M 14.78125 -9.804688 L 42.363281 -0.113281 L 14.535156 79.097656 L -13.046875 69.40625 Z M 14.78125 -9.804688 " clip-rule="nonzero"/></clipPath><clipPath id="157d7bb5ca"><path d="M 204 0.0195312 L 224.761719 0.0195312 L 224.761719 20 L 204 20 Z M 204 0.0195312 " clip-rule="nonzero"/></clipPath><clipPath id="47a1a795a6"><path d="M 209.933594 -6.921875 L 237.515625 2.769531 L 209.6875 81.976562 L 182.105469 72.289062 Z M 209.933594 -6.921875 " clip-rule="nonzero"/></clipPath><clipPath id="81f55496d6"><path d="M 209.933594 -6.921875 L 237.515625 2.769531 L 209.6875 81.976562 L 182.105469 72.289062 Z M 209.933594 -6.921875 " clip-rule="nonzero"/></clipPath><clipPath id="605a1172d3"><path d="M 197 18 L 224.761719 18 L 224.761719 40 L 197 40 Z M 197 18 " clip-rule="nonzero"/></clipPath><clipPath id="ce74b70f89"><path d="M 209.933594 -6.921875 L 237.515625 2.769531 L 209.6875 81.976562 L 182.105469 72.289062 Z M 209.933594 -6.921875 " clip-rule="nonzero"/></clipPath><clipPath id="0b03a1a205"><path d="M 209.933594 -6.921875 L 237.515625 2.769531 L 209.6875 81.976562 L 182.105469 72.289062 Z M 209.933594 -6.921875 " clip-rule="nonzero"/></clipPath><clipPath id="16ec4d77ed"><path d="M 190 38 L 219 38 L 219 61 L 190 61 Z M 190 38 " clip-rule="nonzero"/></clipPath><clipPath id="31490bb8ec"><path d="M 209.933594 -6.921875 L 237.515625 2.769531 L 209.6875 81.976562 L 182.105469 72.289062 Z M 209.933594 -6.921875 " clip-rule="nonzero"/></clipPath><clipPath id="c045e73756"><path d="M 209.933594 -6.921875 L 237.515625 2.769531 L 209.6875 81.976562 L 182.105469 72.289062 Z M 209.933594 -6.921875 " clip-rule="nonzero"/></clipPath><clipPath id="42d9971ea8"><path d="M 183 59 L 212 59 L 212 74.980469 L 183 74.980469 Z M 183 59 " clip-rule="nonzero"/></clipPath><clipPath id="8f4faefa16"><path d="M 209.933594 -6.921875 L 237.515625 2.769531 L 209.6875 81.976562 L 182.105469 72.289062 Z M 209.933594 -6.921875 " clip-rule="nonzero"/></clipPath><clipPath id="e3a24449df"><path d="M 209.933594 -6.921875 L 237.515625 2.769531 L 209.6875 81.976562 L 182.105469 72.289062 Z M 209.933594 -6.921875 " clip-rule="nonzero"/></clipPath></defs><g clip-path="url(#01655fc325)"><path fill="#ffffff" d="M 0 0.0195312 L 224.878906 0.0195312 L 224.878906 82.476562 L 0 82.476562 Z M 0 0.0195312 " fill-opacity="1" fill-rule="nonzero"/><path fill="#ffffff" d="M 0 0.0195312 L 224.878906 0.0195312 L 224.878906 74.980469 L 0 74.980469 Z M 0 0.0195312 " fill-opacity="1" fill-rule="nonzero"/><path fill="#000000" d="M 0 0.0195312 L 224.878906 0.0195312 L 224.878906 74.980469 L 0 74.980469 Z M 0 0.0195312 " fill-opacity="1" fill-rule="nonzero"/></g><g clip-path="url(#a49abfcad8)"><path fill="#33ff00" d="M 117.058594 53.417969 C 117.375 50.609375 119.777344 48.421875 122.691406 48.421875 C 125.820312 48.421875 128.359375 50.9375 128.359375 54.042969 C 128.359375 57.148438 125.820312 59.664062 122.691406 59.664062 C 119.777344 59.664062 117.375 57.480469 117.0625 54.667969 L 107.246094 54.71875 C 106.910156 57.503906 104.519531 59.664062 101.621094 59.664062 C 98.730469 59.664062 96.34375 57.515625 96 54.738281 L 86.167969 54.789062 C 85.800781 57.539062 83.425781 59.664062 80.550781 59.664062 C 77.683594 59.664062 75.3125 57.550781 74.9375 54.808594 L 65.085938 54.859375 C 64.691406 57.578125 62.332031 59.664062 59.480469 59.664062 C 56.351562 59.664062 53.8125 57.148438 53.8125 54.042969 C 53.8125 50.9375 56.351562 48.421875 59.480469 48.421875 C 62.460938 48.421875 64.90625 50.707031 65.128906 53.609375 L 74.90625 53.558594 C 75.152344 50.679688 77.585938 48.421875 80.550781 48.421875 C 83.507812 48.421875 85.9375 50.671875 86.195312 53.539062 L 95.984375 53.488281 C 96.261719 50.644531 98.679688 48.421875 101.621094 48.421875 C 104.554688 48.421875 106.96875 50.632812 107.257812 53.46875 Z M 122.691406 58.414062 C 125.125 58.414062 127.097656 56.457031 127.097656 54.042969 C 127.097656 51.628906 125.125 49.671875 122.691406 49.671875 C 120.257812 49.671875 118.285156 51.628906 118.285156 54.042969 C 118.285156 56.457031 120.257812 58.414062 122.691406 58.414062 Z M 101.621094 58.414062 C 104.054688 58.414062 106.027344 56.457031 106.027344 54.042969 C 106.027344 51.628906 104.054688 49.671875 101.621094 49.671875 C 99.1875 49.671875 97.214844 51.628906 97.214844 54.042969 C 97.214844 56.457031 99.1875 58.414062 101.621094 58.414062 Z M 61.414062 51.933594 L 58.871094 55.289062 C 58.734375 55.472656 58.46875 55.511719 58.285156 55.371094 C 58.273438 55.363281 58.261719 55.355469 58.253906 55.347656 L 57.066406 54.265625 C 56.890625 54.105469 56.617188 54.109375 56.453125 54.28125 C 56.289062 54.445312 56.292969 54.707031 56.457031 54.867188 C 56.460938 54.871094 56.464844 54.871094 56.46875 54.875 L 58.367188 56.609375 C 58.539062 56.765625 58.804688 56.753906 58.960938 56.585938 C 58.972656 56.578125 58.980469 56.566406 58.988281 56.554688 L 62.132812 52.402344 C 62.265625 52.226562 62.230469 51.976562 62.054688 51.839844 C 62.046875 51.835938 62.039062 51.832031 62.03125 51.828125 C 61.832031 51.695312 61.5625 51.742188 61.414062 51.933594 Z M 82.484375 51.933594 L 79.941406 55.289062 C 79.804688 55.472656 79.539062 55.511719 79.355469 55.371094 C 79.34375 55.363281 79.332031 55.355469 79.324219 55.347656 L 78.140625 54.265625 C 77.960938 54.105469 77.6875 54.109375 77.523438 54.28125 C 77.359375 54.445312 77.363281 54.707031 77.527344 54.867188 C 77.53125 54.871094 77.535156 54.871094 77.539062 54.875 L 79.4375 56.609375 C 79.609375 56.765625 79.875 56.753906 80.03125 56.585938 C 80.042969 56.578125 80.050781 56.566406 80.058594 56.554688 L 83.203125 52.402344 C 83.339844 52.226562 83.300781 51.976562 83.125 51.839844 C 83.117188 51.835938 83.109375 51.832031 83.101562 51.828125 C 82.902344 51.695312 82.632812 51.742188 82.484375 51.933594 Z M 82.484375 51.933594 " fill-opacity="1" fill-rule="nonzero"/></g><g clip-path="url(#b97d03d83d)"><path fill="#33ff00" d="M 159.574219 53.417969 C 159.886719 50.609375 162.289062 48.421875 165.207031 48.421875 C 168.335938 48.421875 170.875 50.9375 170.875 54.042969 C 170.875 57.148438 168.335938 59.664062 165.207031 59.664062 C 162.292969 59.664062 159.890625 57.480469 159.574219 54.667969 L 149.761719 54.71875 C 149.425781 57.503906 147.035156 59.664062 144.136719 59.664062 C 141.246094 59.664062 138.859375 57.515625 138.511719 54.738281 L 128.683594 54.789062 C 128.316406 57.539062 125.941406 59.664062 123.066406 59.664062 C 120.199219 59.664062 117.828125 57.550781 117.453125 54.808594 L 107.601562 54.859375 C 107.203125 57.578125 104.847656 59.664062 101.996094 59.664062 C 98.867188 59.664062 96.328125 57.148438 96.328125 54.042969 C 96.328125 50.9375 98.867188 48.421875 101.996094 48.421875 C 104.976562 48.421875 107.421875 50.707031 107.644531 53.609375 L 117.421875 53.558594 C 117.667969 50.679688 120.101562 48.421875 123.066406 48.421875 C 126.023438 48.421875 128.453125 50.671875 128.710938 53.539062 L 138.496094 53.488281 C 138.777344 50.644531 141.195312 48.421875 144.136719 48.421875 C 147.070312 48.421875 149.484375 50.632812 149.773438 53.46875 Z M 165.207031 58.414062 C 167.640625 58.414062 169.613281 56.457031 169.613281 54.042969 C 169.613281 51.628906 167.640625 49.671875 165.207031 49.671875 C 162.773438 49.671875 160.800781 51.628906 160.800781 54.042969 C 160.800781 56.457031 162.773438 58.414062 165.207031 58.414062 Z M 144.136719 58.414062 C 146.570312 58.414062 148.542969 56.457031 148.542969 54.042969 C 148.542969 51.628906 146.570312 49.671875 144.136719 49.671875 C 141.703125 49.671875 139.730469 51.628906 139.730469 54.042969 C 139.730469 56.457031 141.703125 58.414062 144.136719 58.414062 Z M 103.929688 51.933594 L 101.386719 55.289062 C 101.25 55.472656 100.984375 55.511719 100.800781 55.371094 C 100.789062 55.363281 100.777344 55.355469 100.769531 55.347656 L 99.582031 54.265625 C 99.40625 54.105469 99.132812 54.109375 98.964844 54.28125 C 98.804688 54.445312 98.808594 54.707031 98.972656 54.867188 C 98.976562 54.871094 98.980469 54.871094 98.984375 54.875 L 100.882812 56.609375 C 101.054688 56.765625 101.320312 56.753906 101.476562 56.585938 C 101.484375 56.578125 101.496094 56.566406 101.503906 56.554688 L 104.648438 52.402344 C 104.78125 52.226562 104.746094 51.976562 104.566406 51.839844 C 104.5625 51.835938 104.554688 51.832031 104.546875 51.828125 C 104.347656 51.695312 104.074219 51.742188 103.929688 51.933594 Z M 125 51.933594 L 122.457031 55.289062 C 122.320312 55.472656 122.054688 55.511719 121.871094 55.371094 C 121.859375 55.363281 121.847656 55.355469 121.839844 55.347656 L 120.652344 54.265625 C 120.476562 54.105469 120.203125 54.109375 120.039062 54.28125 C 119.875 54.445312 119.878906 54.707031 120.042969 54.867188 C 120.046875 54.871094 120.050781 54.871094 120.054688 54.875 L 121.953125 56.609375 C 122.125 56.765625 122.390625 56.753906 122.546875 56.585938 C 122.558594 56.578125 122.566406 56.566406 122.574219 56.554688 L 125.71875 52.402344 C 125.851562 52.226562 125.816406 51.976562 125.640625 51.839844 C 125.632812 51.835938 125.625 51.832031 125.617188 51.828125 C 125.417969 51.695312 125.148438 51.742188 125 51.933594 Z M 125 51.933594 " fill-opacity="1" fill-rule="nonzero"/></g><g clip-path="url(#3307ff6c9a)"><g clip-path="url(#3ad5035c09)"><g clip-path="url(#0f7ed9ece5)"><path fill="#33ff00" d="M 12.023438 9.015625 C 12.054688 9.085938 12.109375 9.132812 12.183594 9.160156 C 12.253906 9.183594 12.328125 9.179688 12.398438 9.144531 L 25.933594 2.542969 L 32.363281 16.160156 C 32.394531 16.230469 32.449219 16.28125 32.523438 16.304688 C 32.597656 16.332031 32.667969 16.328125 32.738281 16.292969 L 37.28125 14.078125 C 37.351562 14.042969 37.398438 13.988281 37.425781 13.914062 C 37.449219 13.839844 37.445312 13.765625 37.414062 13.695312 L 28.707031 -4.75 C 28.671875 -4.820312 28.621094 -4.871094 28.546875 -4.894531 C 28.472656 -4.921875 28.398438 -4.917969 28.332031 -4.882812 L 9.996094 4.0625 C 9.925781 4.097656 9.878906 4.152344 9.851562 4.226562 C 9.824219 4.300781 9.828125 4.375 9.863281 4.445312 Z M 28.316406 -4.246094 L 36.785156 13.6875 L 32.75 15.65625 L 26.320312 2.035156 C 26.285156 1.964844 26.234375 1.917969 26.160156 1.890625 C 26.085938 1.867188 26.015625 1.871094 25.945312 1.90625 L 12.410156 8.507812 L 10.492188 4.453125 Z M 28.316406 -4.246094 " fill-opacity="1" fill-rule="nonzero"/></g></g></g><g clip-path="url(#3b9699f26e)"><g clip-path="url(#ed64a061b3)"><g clip-path="url(#035881199c)"><path fill="#33ff00" d="M 21.511719 15.722656 C 21.476562 15.652344 21.425781 15.605469 21.351562 15.582031 C 21.277344 15.554688 21.207031 15.558594 21.136719 15.59375 L 2.800781 24.539062 C 2.730469 24.574219 2.683594 24.625 2.65625 24.699219 C 2.632812 24.777344 2.636719 24.847656 2.667969 24.917969 L 4.828125 29.492188 C 4.863281 29.5625 4.914062 29.609375 4.988281 29.632812 C 5.0625 29.660156 5.132812 29.65625 5.203125 29.621094 L 18.738281 23.019531 L 25.167969 36.636719 C 25.203125 36.707031 25.253906 36.757812 25.328125 36.78125 C 25.402344 36.808594 25.472656 36.804688 25.542969 36.769531 L 30.085938 34.550781 C 30.15625 34.515625 30.207031 34.464844 30.230469 34.390625 C 30.257812 34.3125 30.253906 34.242188 30.21875 34.171875 Z M 25.558594 36.132812 L 19.125 22.511719 C 19.09375 22.441406 19.039062 22.394531 18.964844 22.367188 C 18.894531 22.34375 18.820312 22.347656 18.75 22.382812 L 5.214844 28.988281 L 3.300781 24.925781 L 21.125 16.230469 L 29.589844 34.164062 Z M 25.558594 36.132812 " fill-opacity="1" fill-rule="nonzero"/></g></g></g><g clip-path="url(#31960e38e3)"><g clip-path="url(#7021fa7fa9)"><g clip-path="url(#4f5405a18a)"><path fill="#33ff00" d="M 14.316406 36.203125 C 14.285156 36.128906 14.230469 36.082031 14.15625 36.054688 C 14.085938 36.03125 14.011719 36.035156 13.941406 36.070312 L -4.390625 45.015625 C -4.460938 45.050781 -4.511719 45.105469 -4.535156 45.179688 C -4.5625 45.253906 -4.558594 45.324219 -4.523438 45.394531 L -2.367188 49.964844 C -2.332031 50.035156 -2.28125 50.085938 -2.207031 50.109375 C -2.132812 50.136719 -2.0625 50.132812 -1.992188 50.097656 L 11.546875 43.492188 L 17.976562 57.113281 C 18.007812 57.183594 18.0625 57.230469 18.136719 57.257812 C 18.207031 57.285156 18.28125 57.277344 18.351562 57.246094 L 22.890625 55.027344 C 22.960938 54.992188 23.011719 54.9375 23.035156 54.867188 C 23.0625 54.792969 23.058594 54.71875 23.027344 54.648438 Z M 18.363281 56.609375 L 11.933594 42.988281 C 11.898438 42.917969 11.847656 42.871094 11.773438 42.84375 C 11.699219 42.816406 11.628906 42.820312 11.558594 42.855469 L -1.976562 49.460938 L -3.894531 45.402344 L 13.929688 36.707031 L 22.394531 54.640625 Z M 18.363281 56.609375 " fill-opacity="1" fill-rule="nonzero"/></g></g></g><g clip-path="url(#c29629f57c)"><g clip-path="url(#50a1a0f5c2)"><g clip-path="url(#79c917c750)"><path fill="#33ff00" d="M 7.125 56.679688 C 7.089844 56.605469 7.039062 56.558594 6.964844 56.53125 C 6.890625 56.507812 6.820312 56.511719 6.75 56.546875 L -11.585938 65.492188 C -11.65625 65.523438 -11.703125 65.578125 -11.730469 65.652344 C -11.753906 65.726562 -11.753906 65.800781 -11.71875 65.871094 L -9.558594 70.441406 C -9.527344 70.511719 -9.472656 70.5625 -9.398438 70.585938 C -9.328125 70.613281 -9.253906 70.609375 -9.183594 70.574219 L 4.351562 63.964844 L 10.78125 77.582031 C 10.816406 77.65625 10.871094 77.703125 10.941406 77.730469 C 11.015625 77.753906 11.085938 77.75 11.15625 77.714844 L 15.699219 75.496094 C 15.769531 75.464844 15.820312 75.410156 15.84375 75.335938 C 15.871094 75.261719 15.867188 75.1875 15.832031 75.117188 Z M 11.167969 77.085938 L 4.738281 63.464844 C 4.707031 63.394531 4.652344 63.347656 4.578125 63.320312 C 4.503906 63.292969 4.433594 63.296875 4.363281 63.332031 L -9.171875 69.9375 L -11.089844 65.878906 L 6.734375 57.183594 L 15.203125 75.117188 Z M 11.167969 77.085938 " fill-opacity="1" fill-rule="nonzero"/></g></g></g><g fill="#33ff00" fill-opacity="1"><g transform="translate(45.741694, 37.110497)"><g><path d="M 3.890625 -16.3125 L 3.890625 -5.984375 C 3.890625 -4.535156 4.242188 -3.457031 4.953125 -2.75 C 5.660156 -2.050781 6.644531 -1.703125 7.90625 -1.703125 C 9.15625 -1.703125 10.132812 -2.050781 10.84375 -2.75 C 11.550781 -3.457031 11.90625 -4.535156 11.90625 -5.984375 L 11.90625 -16.3125 L 14.046875 -16.3125 L 14.046875 -6.015625 C 14.046875 -4.660156 13.769531 -3.515625 13.21875 -2.578125 C 12.675781 -1.648438 11.941406 -0.960938 11.015625 -0.515625 C 10.085938 -0.0664062 9.046875 0.15625 7.890625 0.15625 C 6.734375 0.15625 5.691406 -0.0664062 4.765625 -0.515625 C 3.835938 -0.960938 3.101562 -1.648438 2.5625 -2.578125 C 2.019531 -3.515625 1.75 -4.660156 1.75 -6.015625 L 1.75 -16.3125 Z M 3.890625 -16.3125 "/></g></g></g><g fill="#33ff00" fill-opacity="1"><g transform="translate(61.533167, 37.110497)"><g><path d="M 3.9375 -10.46875 C 4.351562 -11.195312 4.976562 -11.804688 5.8125 -12.296875 C 6.644531 -12.785156 7.617188 -13.03125 8.734375 -13.03125 C 9.867188 -13.03125 10.898438 -12.757812 11.828125 -12.21875 C 12.753906 -11.675781 13.484375 -10.90625 14.015625 -9.90625 C 14.546875 -8.914062 14.8125 -7.765625 14.8125 -6.453125 C 14.8125 -5.160156 14.546875 -4.003906 14.015625 -2.984375 C 13.484375 -1.972656 12.753906 -1.1875 11.828125 -0.625 C 10.898438 -0.0703125 9.867188 0.203125 8.734375 0.203125 C 7.640625 0.203125 6.675781 -0.0390625 5.84375 -0.53125 C 5.007812 -1.019531 4.375 -1.628906 3.9375 -2.359375 L 3.9375 6.078125 L 1.796875 6.078125 L 1.796875 -12.828125 L 3.9375 -12.828125 Z M 12.640625 -6.453125 C 12.640625 -7.421875 12.441406 -8.265625 12.046875 -8.984375 C 11.660156 -9.703125 11.132812 -10.25 10.46875 -10.625 C 9.8125 -11 9.082031 -11.1875 8.28125 -11.1875 C 7.5 -11.1875 6.773438 -10.992188 6.109375 -10.609375 C 5.453125 -10.234375 4.925781 -9.679688 4.53125 -8.953125 C 4.132812 -8.222656 3.9375 -7.382812 3.9375 -6.4375 C 3.9375 -5.46875 4.132812 -4.617188 4.53125 -3.890625 C 4.925781 -3.171875 5.453125 -2.617188 6.109375 -2.234375 C 6.773438 -1.847656 7.5 -1.65625 8.28125 -1.65625 C 9.082031 -1.65625 9.8125 -1.847656 10.46875 -2.234375 C 11.132812 -2.617188 11.660156 -3.171875 12.046875 -3.890625 C 12.441406 -4.617188 12.640625 -5.472656 12.640625 -6.453125 Z M 12.640625 -6.453125 "/></g></g></g><g fill="#33ff00" fill-opacity="1"><g transform="translate(77.348033, 37.110497)"><g><path d="M 1 -6.453125 C 1 -7.765625 1.265625 -8.914062 1.796875 -9.90625 C 2.328125 -10.90625 3.054688 -11.675781 3.984375 -12.21875 C 4.921875 -12.757812 5.960938 -13.03125 7.109375 -13.03125 C 8.109375 -13.03125 9.035156 -12.800781 9.890625 -12.34375 C 10.753906 -11.882812 11.410156 -11.28125 11.859375 -10.53125 L 11.859375 -17.328125 L 14.015625 -17.328125 L 14.015625 0 L 11.859375 0 L 11.859375 -2.40625 C 11.441406 -1.644531 10.816406 -1.019531 9.984375 -0.53125 C 9.160156 -0.0390625 8.195312 0.203125 7.09375 0.203125 C 5.957031 0.203125 4.921875 -0.0703125 3.984375 -0.625 C 3.054688 -1.1875 2.328125 -1.972656 1.796875 -2.984375 C 1.265625 -4.003906 1 -5.160156 1 -6.453125 Z M 11.859375 -6.4375 C 11.859375 -7.40625 11.664062 -8.25 11.28125 -8.96875 C 10.894531 -9.6875 10.367188 -10.234375 9.703125 -10.609375 C 9.035156 -10.992188 8.304688 -11.1875 7.515625 -11.1875 C 6.710938 -11.1875 5.984375 -11 5.328125 -10.625 C 4.679688 -10.25 4.160156 -9.703125 3.765625 -8.984375 C 3.378906 -8.265625 3.1875 -7.421875 3.1875 -6.453125 C 3.1875 -5.472656 3.378906 -4.617188 3.765625 -3.890625 C 4.160156 -3.171875 4.679688 -2.617188 5.328125 -2.234375 C 5.984375 -1.847656 6.710938 -1.65625 7.515625 -1.65625 C 8.304688 -1.65625 9.035156 -1.847656 9.703125 -2.234375 C 10.367188 -2.617188 10.894531 -3.171875 11.28125 -3.890625 C 11.664062 -4.617188 11.859375 -5.46875 11.859375 -6.4375 Z M 11.859375 -6.4375 "/></g></g></g><g fill="#33ff00" fill-opacity="1"><g transform="translate(93.162899, 37.110497)"><g><path d="M 1 -6.453125 C 1 -7.765625 1.265625 -8.914062 1.796875 -9.90625 C 2.328125 -10.90625 3.054688 -11.675781 3.984375 -12.21875 C 4.921875 -12.757812 5.957031 -13.03125 7.09375 -13.03125 C 8.21875 -13.03125 9.191406 -12.789062 10.015625 -12.3125 C 10.847656 -11.832031 11.460938 -11.222656 11.859375 -10.484375 L 11.859375 -12.828125 L 14.015625 -12.828125 L 14.015625 0 L 11.859375 0 L 11.859375 -2.390625 C 11.441406 -1.640625 10.816406 -1.019531 9.984375 -0.53125 C 9.148438 -0.0390625 8.175781 0.203125 7.0625 0.203125 C 5.925781 0.203125 4.894531 -0.0703125 3.96875 -0.625 C 3.050781 -1.1875 2.328125 -1.972656 1.796875 -2.984375 C 1.265625 -4.003906 1 -5.160156 1 -6.453125 Z M 11.859375 -6.4375 C 11.859375 -7.40625 11.664062 -8.25 11.28125 -8.96875 C 10.894531 -9.6875 10.367188 -10.234375 9.703125 -10.609375 C 9.035156 -10.992188 8.304688 -11.1875 7.515625 -11.1875 C 6.710938 -11.1875 5.984375 -11 5.328125 -10.625 C 4.679688 -10.25 4.160156 -9.703125 3.765625 -8.984375 C 3.378906 -8.265625 3.1875 -7.421875 3.1875 -6.453125 C 3.1875 -5.472656 3.378906 -4.617188 3.765625 -3.890625 C 4.160156 -3.171875 4.679688 -2.617188 5.328125 -2.234375 C 5.984375 -1.847656 6.710938 -1.65625 7.515625 -1.65625 C 8.304688 -1.65625 9.035156 -1.847656 9.703125 -2.234375 C 10.367188 -2.617188 10.894531 -3.171875 11.28125 -3.890625 C 11.664062 -4.617188 11.859375 -5.46875 11.859375 -6.4375 Z M 11.859375 -6.4375 "/></g></g></g><g fill="#33ff00" fill-opacity="1"><g transform="translate(108.977765, 37.110497)"><g><path d="M 4.40625 -11.078125 L 4.40625 -3.515625 C 4.40625 -2.890625 4.535156 -2.445312 4.796875 -2.1875 C 5.066406 -1.925781 5.523438 -1.796875 6.171875 -1.796875 L 7.75 -1.796875 L 7.75 0 L 5.828125 0 C 4.640625 0 3.75 -0.269531 3.15625 -0.8125 C 2.5625 -1.363281 2.265625 -2.265625 2.265625 -3.515625 L 2.265625 -11.078125 L 0.609375 -11.078125 L 0.609375 -12.828125 L 2.265625 -12.828125 L 2.265625 -16.0625 L 4.40625 -16.0625 L 4.40625 -12.828125 L 7.75 -12.828125 L 7.75 -11.078125 Z M 4.40625 -11.078125 "/></g></g></g><g fill="#33ff00" fill-opacity="1"><g transform="translate(117.493461, 37.110497)"><g><path d="M 13.5 -6.90625 C 13.5 -6.5 13.476562 -6.070312 13.4375 -5.625 L 3.1875 -5.625 C 3.257812 -4.351562 3.691406 -3.363281 4.484375 -2.65625 C 5.273438 -1.945312 6.226562 -1.59375 7.34375 -1.59375 C 8.269531 -1.59375 9.039062 -1.804688 9.65625 -2.234375 C 10.269531 -2.660156 10.703125 -3.234375 10.953125 -3.953125 L 13.25 -3.953125 C 12.90625 -2.722656 12.21875 -1.722656 11.1875 -0.953125 C 10.15625 -0.179688 8.875 0.203125 7.34375 0.203125 C 6.132812 0.203125 5.046875 -0.0664062 4.078125 -0.609375 C 3.117188 -1.148438 2.363281 -1.925781 1.8125 -2.9375 C 1.269531 -3.945312 1 -5.113281 1 -6.4375 C 1 -7.757812 1.265625 -8.921875 1.796875 -9.921875 C 2.328125 -10.921875 3.070312 -11.6875 4.03125 -12.21875 C 5 -12.757812 6.101562 -13.03125 7.34375 -13.03125 C 8.5625 -13.03125 9.640625 -12.765625 10.578125 -12.234375 C 11.515625 -11.710938 12.234375 -10.984375 12.734375 -10.046875 C 13.242188 -9.117188 13.5 -8.070312 13.5 -6.90625 Z M 11.3125 -7.34375 C 11.3125 -8.15625 11.128906 -8.851562 10.765625 -9.4375 C 10.410156 -10.03125 9.921875 -10.476562 9.296875 -10.78125 C 8.679688 -11.082031 8 -11.234375 7.25 -11.234375 C 6.175781 -11.234375 5.257812 -10.890625 4.5 -10.203125 C 3.75 -9.515625 3.316406 -8.5625 3.203125 -7.34375 Z M 11.3125 -7.34375 "/></g></g></g><g fill="#33ff00" fill-opacity="1"><g transform="translate(138.24463, 37.110497)"><g><path d="M 3.9375 -1.734375 L 9.640625 -1.734375 L 9.640625 0 L 1.796875 0 L 1.796875 -16.3125 L 3.9375 -16.3125 Z M 3.9375 -1.734375 "/></g></g></g><g fill="#33ff00" fill-opacity="1"><g transform="translate(148.351172, 37.110497)"><g><path d="M 7.390625 0.203125 C 6.191406 0.203125 5.101562 -0.0664062 4.125 -0.609375 C 3.15625 -1.148438 2.390625 -1.925781 1.828125 -2.9375 C 1.273438 -3.945312 1 -5.113281 1 -6.4375 C 1 -7.75 1.285156 -8.90625 1.859375 -9.90625 C 2.429688 -10.914062 3.207031 -11.6875 4.1875 -12.21875 C 5.175781 -12.757812 6.273438 -13.03125 7.484375 -13.03125 C 8.703125 -13.03125 9.800781 -12.757812 10.78125 -12.21875 C 11.769531 -11.6875 12.546875 -10.921875 13.109375 -9.921875 C 13.679688 -8.921875 13.96875 -7.757812 13.96875 -6.4375 C 13.96875 -5.113281 13.675781 -3.945312 13.09375 -2.9375 C 12.507812 -1.925781 11.71875 -1.148438 10.71875 -0.609375 C 9.71875 -0.0664062 8.609375 0.203125 7.390625 0.203125 Z M 7.390625 -1.65625 C 8.160156 -1.65625 8.878906 -1.832031 9.546875 -2.1875 C 10.222656 -2.550781 10.765625 -3.09375 11.171875 -3.8125 C 11.585938 -4.53125 11.796875 -5.40625 11.796875 -6.4375 C 11.796875 -7.46875 11.59375 -8.34375 11.1875 -9.0625 C 10.78125 -9.78125 10.25 -10.3125 9.59375 -10.65625 C 8.9375 -11.007812 8.226562 -11.1875 7.46875 -11.1875 C 6.6875 -11.1875 5.972656 -11.007812 5.328125 -10.65625 C 4.679688 -10.3125 4.160156 -9.78125 3.765625 -9.0625 C 3.378906 -8.34375 3.1875 -7.46875 3.1875 -6.4375 C 3.1875 -5.394531 3.375 -4.515625 3.75 -3.796875 C 4.132812 -3.078125 4.644531 -2.539062 5.28125 -2.1875 C 5.925781 -1.832031 6.628906 -1.65625 7.390625 -1.65625 Z M 7.390625 -1.65625 "/></g></g></g><g fill="#33ff00" fill-opacity="1"><g transform="translate(163.323829, 37.110497)"><g><path d="M 7.09375 -13.03125 C 8.195312 -13.03125 9.164062 -12.789062 10 -12.3125 C 10.84375 -11.832031 11.460938 -11.222656 11.859375 -10.484375 L 11.859375 -12.828125 L 14.015625 -12.828125 L 14.015625 0.28125 C 14.015625 1.445312 13.765625 2.488281 13.265625 3.40625 C 12.765625 4.320312 12.050781 5.035156 11.125 5.546875 C 10.195312 6.054688 9.117188 6.3125 7.890625 6.3125 C 6.203125 6.3125 4.796875 5.914062 3.671875 5.125 C 2.546875 4.332031 1.882812 3.25 1.6875 1.875 L 3.796875 1.875 C 4.023438 2.65625 4.503906 3.28125 5.234375 3.75 C 5.972656 4.226562 6.859375 4.46875 7.890625 4.46875 C 9.054688 4.46875 10.007812 4.097656 10.75 3.359375 C 11.488281 2.628906 11.859375 1.601562 11.859375 0.28125 L 11.859375 -2.40625 C 11.441406 -1.65625 10.816406 -1.03125 9.984375 -0.53125 C 9.160156 -0.0390625 8.195312 0.203125 7.09375 0.203125 C 5.957031 0.203125 4.921875 -0.0703125 3.984375 -0.625 C 3.054688 -1.1875 2.328125 -1.972656 1.796875 -2.984375 C 1.265625 -4.003906 1 -5.160156 1 -6.453125 C 1 -7.765625 1.265625 -8.914062 1.796875 -9.90625 C 2.328125 -10.90625 3.054688 -11.675781 3.984375 -12.21875 C 4.921875 -12.757812 5.957031 -13.03125 7.09375 -13.03125 Z M 11.859375 -6.4375 C 11.859375 -7.40625 11.664062 -8.25 11.28125 -8.96875 C 10.894531 -9.6875 10.367188 -10.234375 9.703125 -10.609375 C 9.035156 -10.992188 8.304688 -11.1875 7.515625 -11.1875 C 6.710938 -11.1875 5.984375 -11 5.328125 -10.625 C 4.679688 -10.25 4.160156 -9.703125 3.765625 -8.984375 C 3.378906 -8.265625 3.1875 -7.421875 3.1875 -6.453125 C 3.1875 -5.472656 3.378906 -4.617188 3.765625 -3.890625 C 4.160156 -3.171875 4.679688 -2.617188 5.328125 -2.234375 C 5.984375 -1.847656 6.710938 -1.65625 7.515625 -1.65625 C 8.304688 -1.65625 9.035156 -1.847656 9.703125 -2.234375 C 10.367188 -2.617188 10.894531 -3.171875 11.28125 -3.890625 C 11.664062 -4.617188 11.859375 -5.46875 11.859375 -6.4375 Z M 11.859375 -6.4375 "/></g></g></g><g clip-path="url(#157d7bb5ca)"><g clip-path="url(#47a1a795a6)"><g clip-path="url(#81f55496d6)"><path fill="#33ff00" d="M 207.175781 11.894531 C 207.207031 11.96875 207.261719 12.015625 207.335938 12.042969 C 207.410156 12.066406 207.480469 12.0625 207.550781 12.027344 L 221.085938 5.421875 L 227.515625 19.042969 C 227.546875 19.113281 227.601562 19.164062 227.675781 19.1875 C 227.75 19.214844 227.820312 19.207031 227.890625 19.175781 L 232.433594 16.957031 C 232.503906 16.925781 232.550781 16.871094 232.578125 16.796875 C 232.605469 16.722656 232.601562 16.648438 232.566406 16.578125 L 223.859375 -1.867188 C 223.824219 -1.941406 223.773438 -1.988281 223.699219 -2.015625 C 223.625 -2.039062 223.554688 -2.035156 223.484375 -2 L 205.148438 6.945312 C 205.078125 6.980469 205.03125 7.035156 205.003906 7.109375 C 204.976562 7.183594 204.980469 7.253906 205.015625 7.324219 Z M 223.46875 -1.363281 L 231.9375 16.570312 L 227.902344 18.539062 L 221.472656 4.917969 C 221.441406 4.847656 221.386719 4.800781 221.3125 4.773438 C 221.242188 4.746094 221.167969 4.753906 221.097656 4.785156 L 207.5625 11.390625 L 205.644531 7.332031 Z M 223.46875 -1.363281 " fill-opacity="1" fill-rule="nonzero"/></g></g></g><g clip-path="url(#605a1172d3)"><g clip-path="url(#ce74b70f89)"><g clip-path="url(#0b03a1a205)"><path fill="#33ff00" d="M 216.664062 18.605469 C 216.632812 18.535156 216.578125 18.488281 216.503906 18.460938 C 216.429688 18.4375 216.359375 18.441406 216.289062 18.472656 L 197.957031 27.421875 C 197.886719 27.453125 197.835938 27.507812 197.8125 27.582031 C 197.785156 27.65625 197.789062 27.730469 197.820312 27.800781 L 199.980469 32.371094 C 200.015625 32.441406 200.066406 32.492188 200.140625 32.515625 C 200.214844 32.542969 200.285156 32.539062 200.355469 32.503906 L 213.890625 25.898438 L 220.320312 39.519531 C 220.355469 39.589844 220.410156 39.636719 220.480469 39.664062 C 220.554688 39.6875 220.625 39.683594 220.695312 39.652344 L 225.238281 37.433594 C 225.308594 37.398438 225.359375 37.34375 225.382812 37.269531 C 225.410156 37.195312 225.40625 37.125 225.371094 37.054688 Z M 220.710938 39.015625 L 214.28125 25.394531 C 214.246094 25.324219 214.191406 25.277344 214.121094 25.25 C 214.046875 25.222656 213.972656 25.226562 213.90625 25.261719 L 200.367188 31.867188 L 198.453125 27.808594 L 216.277344 19.113281 L 224.742188 37.046875 Z M 220.710938 39.015625 " fill-opacity="1" fill-rule="nonzero"/></g></g></g><g clip-path="url(#16ec4d77ed)"><g clip-path="url(#31490bb8ec)"><g clip-path="url(#c045e73756)"><path fill="#33ff00" d="M 209.46875 39.082031 C 209.4375 39.011719 209.382812 38.964844 209.3125 38.9375 C 209.238281 38.910156 209.164062 38.917969 209.09375 38.953125 L 190.761719 47.898438 C 190.691406 47.929688 190.644531 47.984375 190.617188 48.058594 C 190.589844 48.132812 190.59375 48.207031 190.628906 48.277344 L 192.789062 52.847656 C 192.820312 52.917969 192.875 52.96875 192.945312 52.992188 C 193.019531 53.019531 193.09375 53.015625 193.164062 52.980469 L 206.699219 46.375 L 213.128906 59.996094 C 213.160156 60.066406 213.214844 60.113281 213.289062 60.140625 C 213.363281 60.164062 213.433594 60.160156 213.503906 60.125 L 218.046875 57.910156 C 218.113281 57.875 218.164062 57.820312 218.191406 57.746094 C 218.214844 57.671875 218.210938 57.601562 218.179688 57.53125 Z M 213.515625 59.488281 L 207.085938 45.871094 C 207.050781 45.800781 207 45.753906 206.925781 45.726562 C 206.851562 45.699219 206.78125 45.703125 206.710938 45.738281 L 193.175781 52.34375 L 191.257812 48.285156 L 209.082031 39.589844 L 217.546875 57.523438 Z M 213.515625 59.488281 " fill-opacity="1" fill-rule="nonzero"/></g></g></g><g clip-path="url(#42d9971ea8)"><g clip-path="url(#8f4faefa16)"><g clip-path="url(#e3a24449df)"><path fill="#33ff00" d="M 202.277344 59.558594 C 202.242188 59.488281 202.191406 59.441406 202.117188 59.414062 C 202.042969 59.390625 201.972656 59.394531 201.902344 59.429688 L 183.566406 68.371094 C 183.496094 68.40625 183.449219 68.460938 183.421875 68.535156 C 183.398438 68.609375 183.402344 68.683594 183.433594 68.753906 L 185.59375 73.324219 C 185.625 73.394531 185.679688 73.441406 185.753906 73.46875 C 185.828125 73.492188 185.898438 73.488281 185.96875 73.457031 L 199.503906 66.847656 L 205.9375 80.464844 C 205.96875 80.535156 206.023438 80.585938 206.097656 80.609375 C 206.167969 80.636719 206.242188 80.632812 206.3125 80.597656 L 210.851562 78.378906 C 210.921875 78.34375 210.972656 78.292969 210.996094 78.21875 C 211.023438 78.144531 211.019531 78.070312 210.988281 78 Z M 206.320312 79.964844 L 199.890625 66.347656 C 199.859375 66.277344 199.804688 66.226562 199.730469 66.203125 C 199.660156 66.175781 199.585938 66.179688 199.515625 66.214844 L 185.980469 72.820312 L 184.0625 68.761719 L 201.886719 60.0625 L 210.355469 77.996094 Z M 206.320312 79.964844 " fill-opacity="1" fill-rule="nonzero"/></g></g></g></svg>