<svg xmlns="http://www.w3.org/2000/svg" xmlns:xlink="http://www.w3.org/1999/xlink" width="300" zoomAndPan="magnify" viewBox="0 0 224.87999 74.999997" height="100" preserveAspectRatio="xMidYMid meet" version="1.0"><defs><clipPath id="c957688e81"><path d="M 24.667969 58 L 200 58 L 200 62.398438 L 24.667969 62.398438 Z M 24.667969 58 " clip-rule="nonzero"/></clipPath><clipPath id="9190ac7060"><path d="M 176 12.925781 L 187 12.925781 L 187 59 L 176 59 Z M 176 12.925781 " clip-rule="nonzero"/></clipPath><clipPath id="f962583428"><path d="M 168 12.925781 L 180 12.925781 L 180 59 L 168 59 Z M 168 12.925781 " clip-rule="nonzero"/></clipPath><clipPath id="c5d4e1c26a"><path d="M 168 12.925781 L 174 12.925781 L 174 59 L 168 59 Z M 168 12.925781 " clip-rule="nonzero"/></clipPath></defs><path fill="#992929" d="M 37.164062 19.25 L 42.464844 19.25 L 42.464844 58.878906 L 37.164062 58.878906 Z M 37.164062 19.25 " fill-opacity="1" fill-rule="nonzero"/><path fill="#c43936" d="M 37.882812 58.5625 C 37.882812 58.734375 37.738281 58.878906 37.566406 58.878906 L 28.914062 58.878906 C 28.742188 58.878906 28.597656 58.734375 28.597656 58.5625 L 28.597656 19.570312 C 28.597656 19.394531 28.738281 19.25 28.914062 19.25 L 37.566406 19.25 C 37.738281 19.25 37.882812 19.394531 37.882812 19.570312 Z M 37.882812 58.5625 " fill-opacity="1" fill-rule="nonzero"/><path fill="#ffffff" d="M 28.945312 19.25 L 33.238281 19.25 L 33.238281 58.878906 L 28.945312 58.878906 Z M 28.945312 19.25 " fill-opacity="0.098" fill-rule="nonzero"/><path fill="#ffffff" d="M 29.316406 20.863281 L 37.164062 20.863281 L 37.164062 21.113281 L 29.316406 21.113281 Z M 29.316406 20.863281 " fill-opacity="0.498" fill-rule="nonzero"/><path fill="#ffffff" d="M 29.855469 21.804688 L 36.621094 21.804688 L 36.621094 22.054688 L 29.855469 22.054688 Z M 29.855469 21.804688 " fill-opacity="0.498" fill-rule="nonzero"/><path fill="#ffffff" d="M 30.53125 22.746094 L 35.949219 22.746094 L 35.949219 22.996094 L 30.53125 22.996094 Z M 30.53125 22.746094 " fill-opacity="0.498" fill-rule="nonzero"/><path fill="#ffffff" d="M 29.316406 57.019531 L 37.164062 57.019531 L 37.164062 57.265625 L 29.316406 57.265625 Z M 29.316406 57.019531 " fill-opacity="0.498" fill-rule="nonzero"/><path fill="#ffffff" d="M 29.855469 56.074219 L 36.621094 56.074219 L 36.621094 56.324219 L 29.855469 56.324219 Z M 29.855469 56.074219 " fill-opacity="0.498" fill-rule="nonzero"/><path fill="#ffffff" d="M 30.53125 55.132812 L 35.949219 55.132812 L 35.949219 55.382812 L 30.53125 55.382812 Z M 30.53125 55.132812 " fill-opacity="0.498" fill-rule="nonzero"/><path fill="#ffffff" d="M 35.703125 39.066406 C 35.703125 39.765625 35.6875 40.460938 35.65625 41.148438 C 35.625 41.835938 35.578125 42.503906 35.515625 43.148438 C 35.453125 43.796875 35.378906 44.414062 35.289062 44.996094 C 35.199219 45.578125 35.097656 46.117188 34.984375 46.613281 C 34.867188 47.109375 34.742188 47.550781 34.609375 47.941406 C 34.472656 48.328125 34.332031 48.65625 34.183594 48.925781 C 34.03125 49.195312 33.878906 49.398438 33.71875 49.535156 C 33.5625 49.671875 33.402344 49.738281 33.238281 49.738281 C 33.078125 49.738281 32.917969 49.671875 32.757812 49.535156 C 32.597656 49.398438 32.445312 49.195312 32.296875 48.925781 C 32.144531 48.65625 32.003906 48.328125 31.871094 47.941406 C 31.734375 47.550781 31.609375 47.109375 31.496094 46.613281 C 31.382812 46.117188 31.28125 45.578125 31.1875 44.996094 C 31.097656 44.414062 31.023438 43.796875 30.960938 43.148438 C 30.898438 42.503906 30.851562 41.835938 30.820312 41.148438 C 30.789062 40.460938 30.773438 39.765625 30.773438 39.066406 C 30.773438 38.363281 30.789062 37.671875 30.820312 36.984375 C 30.851562 36.296875 30.898438 35.628906 30.960938 34.980469 C 31.023438 34.332031 31.097656 33.71875 31.1875 33.136719 C 31.28125 32.550781 31.382812 32.011719 31.496094 31.519531 C 31.609375 31.023438 31.734375 30.578125 31.871094 30.191406 C 32.003906 29.800781 32.144531 29.472656 32.296875 29.203125 C 32.445312 28.9375 32.597656 28.734375 32.757812 28.597656 C 32.917969 28.460938 33.078125 28.390625 33.238281 28.390625 C 33.402344 28.390625 33.5625 28.460938 33.71875 28.597656 C 33.878906 28.734375 34.03125 28.9375 34.183594 29.203125 C 34.332031 29.472656 34.472656 29.800781 34.609375 30.191406 C 34.742188 30.578125 34.867188 31.023438 34.984375 31.519531 C 35.097656 32.011719 35.199219 32.550781 35.289062 33.136719 C 35.378906 33.71875 35.453125 34.332031 35.515625 34.980469 C 35.578125 35.628906 35.625 36.296875 35.65625 36.984375 C 35.6875 37.671875 35.703125 38.363281 35.703125 39.066406 Z M 35.703125 39.066406 " fill-opacity="0.3098" fill-rule="nonzero"/><path fill="#1b3854" d="M 54.457031 15.46875 L 60.605469 15.46875 L 60.605469 58.878906 L 54.457031 58.878906 Z M 54.457031 15.46875 " fill-opacity="1" fill-rule="nonzero"/><path fill="#2b5687" d="M 55.265625 15.816406 L 55.265625 58.53125 C 55.265625 58.722656 55.113281 58.878906 54.921875 58.878906 L 41.765625 58.878906 C 41.574219 58.878906 41.417969 58.722656 41.417969 58.53125 L 41.417969 15.816406 C 41.417969 15.628906 41.574219 15.46875 41.765625 15.46875 L 54.921875 15.46875 C 55.113281 15.46875 55.265625 15.628906 55.265625 15.816406 Z M 55.265625 15.816406 " fill-opacity="1" fill-rule="nonzero"/><path fill="#ffffff" d="M 41.417969 20.628906 L 55.265625 20.628906 L 55.265625 21.730469 L 41.417969 21.730469 Z M 41.417969 20.628906 " fill-opacity="0.498" fill-rule="nonzero"/><path fill="#ffffff" d="M 41.417969 33.464844 L 55.265625 33.464844 L 55.265625 34.566406 L 41.417969 34.566406 Z M 41.417969 33.464844 " fill-opacity="0.498" fill-rule="nonzero"/><path fill="#ffffff" d="M 41.417969 21.730469 L 55.265625 21.730469 L 55.265625 33.464844 L 41.417969 33.464844 Z M 41.417969 21.730469 " fill-opacity="0.098" fill-rule="nonzero"/><path fill="#ffffff" d="M 41.9375 15.46875 L 44.277344 15.46875 L 44.277344 58.878906 L 41.9375 58.878906 Z M 41.9375 15.46875 " fill-opacity="0.098" fill-rule="nonzero"/><path fill="#231f20" d="M 55.265625 15.816406 L 55.265625 58.53125 C 55.265625 58.722656 55.113281 58.878906 54.921875 58.878906 L 52.910156 58.878906 L 52.910156 15.46875 L 54.921875 15.46875 C 55.113281 15.46875 55.265625 15.628906 55.265625 15.816406 Z M 55.265625 15.816406 " fill-opacity="0.098" fill-rule="nonzero"/><path fill="#056d65" d="M 65.105469 17.367188 L 73.074219 17.367188 L 73.074219 58.878906 L 65.105469 58.878906 Z M 65.105469 17.367188 " fill-opacity="1" fill-rule="nonzero"/><path fill="#07938c" d="M 68.007812 58.546875 C 68.007812 58.730469 67.859375 58.878906 67.675781 58.878906 L 58.613281 58.878906 C 58.429688 58.878906 58.28125 58.730469 58.28125 58.546875 L 58.28125 17.699219 C 58.28125 17.515625 58.429688 17.367188 58.613281 17.367188 L 67.675781 17.367188 C 67.859375 17.367188 68.007812 17.515625 68.007812 17.699219 Z M 68.007812 58.546875 " fill-opacity="1" fill-rule="nonzero"/><path fill="#ffffff" d="M 58.28125 46.855469 L 68.003906 46.855469 L 68.003906 56.644531 L 58.28125 56.644531 Z M 58.28125 46.855469 " fill-opacity="0.098" fill-rule="nonzero"/><path fill="#ffffff" d="M 58.28125 20.714844 L 68.003906 20.714844 L 68.003906 23.125 L 58.28125 23.125 Z M 58.28125 20.714844 " fill-opacity="0.498" fill-rule="nonzero"/><path fill="#ffffff" d="M 58.644531 17.367188 L 63.144531 17.367188 L 63.144531 58.878906 L 58.644531 58.878906 Z M 58.644531 17.367188 " fill-opacity="0.098" fill-rule="nonzero"/><path fill="#db8012" d="M 74.945312 24.097656 L 80.136719 24.097656 L 80.136719 58.878906 L 74.945312 58.878906 Z M 74.945312 24.097656 " fill-opacity="1" fill-rule="nonzero"/><path fill="#f59f25" d="M 76.679688 24.445312 L 76.679688 58.53125 C 76.679688 58.722656 76.527344 58.878906 76.335938 58.878906 L 71.273438 58.878906 C 71.082031 58.878906 70.925781 58.722656 70.925781 58.53125 L 70.925781 24.445312 C 70.925781 24.253906 71.082031 24.097656 71.273438 24.097656 L 76.335938 24.097656 C 76.527344 24.097656 76.679688 24.253906 76.679688 24.445312 Z M 76.679688 24.445312 " fill-opacity="1" fill-rule="nonzero"/><path fill="#f7d267" d="M 70.925781 25.667969 L 76.679688 25.667969 L 76.679688 27.667969 L 70.925781 27.667969 Z M 70.925781 25.667969 " fill-opacity="1" fill-rule="nonzero"/><path fill="#f7d267" d="M 70.925781 55.542969 L 76.679688 55.542969 L 76.679688 57.542969 L 70.925781 57.542969 Z M 70.925781 55.542969 " fill-opacity="1" fill-rule="nonzero"/><path fill="#ffffff" d="M 71.105469 24.132812 L 73.648438 24.132812 L 73.648438 58.878906 L 71.105469 58.878906 Z M 71.105469 24.132812 " fill-opacity="0.098" fill-rule="nonzero"/><g clip-path="url(#c957688e81)"><path fill="#c98669" d="M 24.757812 58.878906 L 199.988281 58.878906 L 199.988281 62.398438 L 24.757812 62.398438 Z M 24.757812 58.878906 " fill-opacity="1" fill-rule="nonzero"/></g><path fill="#b74330" d="M 85.046875 19.378906 L 92.832031 19.378906 L 92.832031 58.878906 L 85.046875 58.878906 Z M 85.046875 19.378906 " fill-opacity="1" fill-rule="nonzero"/><path fill="#e35c3e" d="M 87.796875 58.53125 C 87.796875 58.722656 87.640625 58.878906 87.453125 58.878906 L 79.980469 58.878906 C 79.792969 58.878906 79.636719 58.722656 79.636719 58.53125 L 79.636719 19.726562 C 79.636719 19.535156 79.792969 19.378906 79.980469 19.378906 L 87.453125 19.378906 C 87.640625 19.378906 87.796875 19.535156 87.796875 19.726562 Z M 87.796875 58.53125 " fill-opacity="1" fill-rule="nonzero"/><path fill="#ffffff" d="M 85.882812 43.109375 C 85.882812 44.3125 84.914062 45.289062 83.714844 45.289062 C 82.519531 45.289062 81.546875 44.3125 81.546875 43.109375 L 81.546875 33.859375 C 81.546875 32.652344 82.519531 31.675781 83.714844 31.675781 C 84.910156 31.675781 85.882812 32.652344 85.882812 33.859375 Z M 85.882812 43.109375 " fill-opacity="0.4" fill-rule="nonzero"/><path fill="#ffffff" d="M 80.46875 19.378906 L 83.714844 19.378906 L 83.714844 58.878906 L 80.46875 58.878906 Z M 80.46875 19.378906 " fill-opacity="0.098" fill-rule="nonzero"/><path fill="#ffffff" d="M 79.636719 22.304688 L 87.796875 22.304688 L 87.796875 22.710938 L 79.636719 22.710938 Z M 79.636719 22.304688 " fill-opacity="1" fill-rule="nonzero"/><path fill="#ffffff" d="M 79.636719 23.171875 L 87.796875 23.171875 L 87.796875 23.578125 L 79.636719 23.578125 Z M 79.636719 23.171875 " fill-opacity="1" fill-rule="nonzero"/><path fill="#ffffff" d="M 79.636719 54.597656 L 87.796875 54.597656 L 87.796875 55 L 79.636719 55 Z M 79.636719 54.597656 " fill-opacity="1" fill-rule="nonzero"/><path fill="#ffffff" d="M 79.636719 55.464844 L 87.796875 55.464844 L 87.796875 55.871094 L 79.636719 55.871094 Z M 79.636719 55.464844 " fill-opacity="1" fill-rule="nonzero"/><path fill="#00627c" d="M 95.449219 24.097656 L 100.917969 24.097656 L 100.917969 58.878906 L 95.449219 58.878906 Z M 95.449219 24.097656 " fill-opacity="1" fill-rule="nonzero"/><path fill="#008dab" d="M 96.707031 24.445312 L 96.707031 58.53125 C 96.707031 58.722656 96.550781 58.878906 96.359375 58.878906 L 91.296875 58.878906 C 91.109375 58.878906 90.953125 58.722656 90.953125 58.53125 L 90.953125 24.445312 C 90.953125 24.253906 91.109375 24.097656 91.296875 24.097656 L 96.359375 24.097656 C 96.546875 24.097656 96.707031 24.253906 96.707031 24.445312 Z M 96.707031 24.445312 " fill-opacity="1" fill-rule="nonzero"/><path fill="#ffffff" d="M 95.449219 41.195312 C 95.449219 42.09375 94.722656 42.824219 93.828125 42.824219 C 92.933594 42.824219 92.210938 42.09375 92.210938 41.195312 L 92.210938 29.707031 C 92.210938 28.804688 92.933594 28.074219 93.828125 28.074219 C 94.722656 28.074219 95.449219 28.804688 95.449219 29.707031 Z M 95.449219 41.195312 " fill-opacity="0.498" fill-rule="nonzero"/><path fill="#ffffff" d="M 91.570312 24.097656 L 93.828125 24.097656 L 93.828125 58.878906 L 91.570312 58.878906 Z M 91.570312 24.097656 " fill-opacity="0.098" fill-rule="nonzero"/><path fill="#1b3854" d="M 105.574219 19.378906 L 113.117188 19.378906 L 113.117188 58.878906 L 105.574219 58.878906 Z M 105.574219 19.378906 " fill-opacity="1" fill-rule="nonzero"/><path fill="#2b5687" d="M 107.425781 58.53125 C 107.425781 58.722656 107.269531 58.878906 107.082031 58.878906 L 99.609375 58.878906 C 99.417969 58.878906 99.265625 58.722656 99.265625 58.53125 L 99.265625 19.726562 C 99.265625 19.535156 99.417969 19.378906 99.609375 19.378906 L 107.078125 19.378906 C 107.269531 19.378906 107.425781 19.535156 107.425781 19.726562 Z M 107.425781 58.53125 " fill-opacity="1" fill-rule="nonzero"/><path fill="#ffffff" d="M 99.261719 56.585938 L 107.425781 56.585938 L 107.425781 57.355469 L 99.261719 57.355469 Z M 99.261719 56.585938 " fill-opacity="0.3098" fill-rule="nonzero"/><path fill="#ffffff" d="M 99.261719 21.675781 L 107.425781 21.675781 L 107.425781 29.609375 L 99.261719 29.609375 Z M 99.261719 21.675781 " fill-opacity="0.3098" fill-rule="nonzero"/><path fill="#ffffff" d="M 99.609375 19.378906 L 103.34375 19.378906 L 103.34375 58.878906 L 99.609375 58.878906 Z M 99.609375 19.378906 " fill-opacity="0.098" fill-rule="nonzero"/><path fill="#db8012" d="M 118.039062 23.019531 L 125.824219 23.019531 L 125.824219 58.878906 L 118.039062 58.878906 Z M 118.039062 23.019531 " fill-opacity="1" fill-rule="nonzero"/><path fill="#f59f25" d="M 120.59375 23.367188 L 120.59375 58.53125 C 120.59375 58.722656 120.4375 58.878906 120.25 58.878906 L 110.839844 58.878906 C 110.648438 58.878906 110.492188 58.722656 110.492188 58.53125 L 110.492188 23.367188 C 110.492188 23.175781 110.648438 23.019531 110.839844 23.019531 L 120.25 23.019531 C 120.4375 23.019531 120.59375 23.175781 120.59375 23.367188 Z M 120.59375 23.367188 " fill-opacity="1" fill-rule="nonzero"/><path fill="#ffffff" d="M 110.492188 27.597656 L 120.59375 27.597656 L 120.59375 28.835938 L 110.492188 28.835938 Z M 110.492188 27.597656 " fill-opacity="0.698" fill-rule="nonzero"/><path fill="#ffffff" d="M 111.222656 23.019531 L 115.542969 23.019531 L 115.542969 58.878906 L 111.222656 58.878906 Z M 111.222656 23.019531 " fill-opacity="0.098" fill-rule="nonzero"/><path fill="#b74330" d="M 127.839844 15.46875 L 132.914062 15.46875 L 132.914062 58.878906 L 127.839844 58.878906 Z M 127.839844 15.46875 " fill-opacity="1" fill-rule="nonzero"/><path fill="#e35c3e" d="M 128.980469 58.53125 C 128.980469 58.722656 128.824219 58.878906 128.636719 58.878906 L 124.242188 58.878906 C 124.050781 58.878906 123.898438 58.722656 123.898438 58.53125 L 123.898438 15.816406 C 123.898438 15.625 124.050781 15.46875 124.242188 15.46875 L 128.636719 15.46875 C 128.824219 15.46875 128.980469 15.625 128.980469 15.816406 Z M 128.980469 58.53125 " fill-opacity="1" fill-rule="nonzero"/><path fill="#ffffff" d="M 123.894531 21.039062 L 128.980469 21.039062 L 128.980469 28.835938 L 123.894531 28.835938 Z M 123.894531 21.039062 " fill-opacity="0.498" fill-rule="nonzero"/><path fill="#ffffff" d="M 123.894531 29.855469 L 128.980469 29.855469 L 128.980469 31.191406 L 123.894531 31.191406 Z M 123.894531 29.855469 " fill-opacity="0.498" fill-rule="nonzero"/><path fill="#ffffff" d="M 123.894531 18.710938 L 128.980469 18.710938 L 128.980469 20.046875 L 123.894531 20.046875 Z M 123.894531 18.710938 " fill-opacity="0.498" fill-rule="nonzero"/><path fill="#ffffff" d="M 124.425781 15.46875 L 126.4375 15.46875 L 126.4375 58.878906 L 124.425781 58.878906 Z M 124.425781 15.46875 " fill-opacity="0.098" fill-rule="nonzero"/><path fill="#00627c" d="M 141.300781 15.46875 L 153.046875 15.46875 L 153.046875 58.878906 L 141.300781 58.878906 Z M 141.300781 15.46875 " fill-opacity="1" fill-rule="nonzero"/><path fill="#008dab" d="M 145.316406 15.820312 L 145.316406 58.53125 C 145.316406 58.722656 145.164062 58.878906 144.972656 58.878906 L 131.816406 58.878906 C 131.628906 58.878906 131.472656 58.722656 131.472656 58.53125 L 131.472656 15.820312 C 131.472656 15.628906 131.628906 15.472656 131.816406 15.472656 L 144.972656 15.472656 C 145.164062 15.472656 145.316406 15.628906 145.316406 15.820312 Z M 145.316406 15.820312 " fill-opacity="1" fill-rule="nonzero"/><path fill="#ffffff" d="M 131.988281 15.472656 L 134.328125 15.472656 L 134.328125 58.878906 L 131.988281 58.878906 Z M 131.988281 15.472656 " fill-opacity="0.098" fill-rule="nonzero"/><path fill="#231f20" d="M 145.316406 15.820312 L 145.316406 58.53125 C 145.316406 58.722656 145.164062 58.878906 144.972656 58.878906 L 142.960938 58.878906 L 142.960938 15.472656 L 144.972656 15.472656 C 145.164062 15.472656 145.316406 15.628906 145.316406 15.820312 Z M 145.316406 15.820312 " fill-opacity="0.098" fill-rule="nonzero"/><path fill="#ffffff" d="M 131.46875 18.363281 L 145.316406 18.363281 L 145.316406 19.046875 L 131.46875 19.046875 Z M 131.46875 18.363281 " fill-opacity="0.498" fill-rule="nonzero"/><path fill="#ffffff" d="M 131.46875 19.914062 L 145.316406 19.914062 L 145.316406 20.597656 L 131.46875 20.597656 Z M 131.46875 19.914062 " fill-opacity="0.498" fill-rule="nonzero"/><path fill="#ffffff" d="M 131.46875 53.75 L 145.316406 53.75 L 145.316406 54.433594 L 131.46875 54.433594 Z M 131.46875 53.75 " fill-opacity="0.498" fill-rule="nonzero"/><path fill="#ffffff" d="M 131.46875 55.300781 L 145.316406 55.300781 L 145.316406 55.984375 L 131.46875 55.984375 Z M 131.46875 55.300781 " fill-opacity="0.498" fill-rule="nonzero"/><path fill="#ffffff" d="M 140.972656 25.648438 L 140.972656 48.699219 C 140.972656 48.835938 140.917969 48.96875 140.820312 49.0625 L 139.597656 50.296875 C 139.5 50.394531 139.371094 50.449219 139.234375 50.449219 L 137.554688 50.449219 C 137.417969 50.449219 137.289062 50.394531 137.195312 50.296875 L 135.96875 49.0625 C 135.871094 48.96875 135.816406 48.835938 135.816406 48.699219 L 135.816406 25.648438 C 135.816406 25.511719 135.871094 25.382812 135.96875 25.285156 L 137.195312 24.050781 C 137.289062 23.957031 137.417969 23.902344 137.554688 23.902344 L 139.234375 23.902344 C 139.371094 23.902344 139.5 23.957031 139.597656 24.050781 L 140.820312 25.285156 C 140.917969 25.382812 140.972656 25.511719 140.972656 25.648438 Z M 140.972656 25.648438 " fill-opacity="0.498" fill-rule="nonzero"/><path fill="#1b3854" d="M 154.691406 19.378906 L 162.382812 19.378906 L 162.382812 58.878906 L 154.691406 58.878906 Z M 154.691406 19.378906 " fill-opacity="1" fill-rule="nonzero"/><path fill="#2b5687" d="M 157.183594 58.53125 C 157.183594 58.722656 157.027344 58.878906 156.839844 58.878906 L 149.367188 58.878906 C 149.179688 58.878906 149.023438 58.722656 149.023438 58.53125 L 149.023438 19.726562 C 149.023438 19.535156 149.179688 19.378906 149.367188 19.378906 L 156.839844 19.378906 C 157.027344 19.378906 157.183594 19.535156 157.183594 19.726562 Z M 157.183594 58.53125 " fill-opacity="1" fill-rule="nonzero"/><path fill="#ffffff" d="M 149.546875 19.378906 L 153.101562 19.378906 L 153.101562 58.878906 L 149.546875 58.878906 Z M 149.546875 19.378906 " fill-opacity="0.098" fill-rule="nonzero"/><path fill="#f7a155" d="M 149.023438 24.8125 L 157.183594 24.8125 L 157.183594 25.234375 L 149.023438 25.234375 Z M 149.023438 24.8125 " fill-opacity="1" fill-rule="nonzero"/><path fill="#f7a155" d="M 149.023438 30.101562 L 157.183594 30.101562 L 157.183594 30.523438 L 149.023438 30.523438 Z M 149.023438 30.101562 " fill-opacity="1" fill-rule="nonzero"/><path fill="#231f20" d="M 149.023438 25.234375 L 157.183594 25.234375 L 157.183594 30.101562 L 149.023438 30.101562 Z M 149.023438 25.234375 " fill-opacity="0.4" fill-rule="nonzero"/><path fill="#db8012" d="M 163.960938 24.097656 L 170.875 24.097656 L 170.875 58.878906 L 163.960938 58.878906 Z M 163.960938 24.097656 " fill-opacity="1" fill-rule="nonzero"/><path fill="#f59f25" d="M 166.019531 24.445312 L 166.019531 58.53125 C 166.019531 58.722656 165.863281 58.878906 165.675781 58.878906 L 160.613281 58.878906 C 160.421875 58.878906 160.265625 58.722656 160.265625 58.53125 L 160.265625 24.445312 C 160.265625 24.253906 160.421875 24.097656 160.613281 24.097656 L 165.675781 24.097656 C 165.863281 24.097656 166.019531 24.253906 166.019531 24.445312 Z M 166.019531 24.445312 " fill-opacity="1" fill-rule="nonzero"/><path fill="#ffffff" d="M 164.761719 41.195312 C 164.761719 42.09375 164.039062 42.824219 163.144531 42.824219 C 162.25 42.824219 161.523438 42.09375 161.523438 41.195312 L 161.523438 29.707031 C 161.523438 28.804688 162.25 28.074219 163.144531 28.074219 C 164.039062 28.074219 164.761719 28.804688 164.761719 29.707031 Z M 164.761719 41.195312 " fill-opacity="0.4" fill-rule="nonzero"/><path fill="#ffffff" d="M 160.886719 24.097656 L 163.144531 24.097656 L 163.144531 58.878906 L 160.886719 58.878906 Z M 160.886719 24.097656 " fill-opacity="0.098" fill-rule="nonzero"/><g clip-path="url(#9190ac7060)"><path fill="#b74330" d="M 176.609375 12.925781 L 186.109375 12.925781 L 186.109375 58.878906 L 176.609375 58.878906 Z M 176.609375 12.925781 " fill-opacity="1" fill-rule="nonzero"/></g><g clip-path="url(#f962583428)"><path fill="#e35c3e" d="M 179.101562 58.511719 C 179.101562 58.714844 178.9375 58.878906 178.734375 58.878906 L 168.703125 58.878906 C 168.5 58.878906 168.335938 58.714844 168.335938 58.511719 L 168.335938 13.292969 C 168.335938 13.089844 168.5 12.925781 168.703125 12.925781 L 178.734375 12.925781 C 178.9375 12.925781 179.101562 13.089844 179.101562 13.292969 Z M 179.101562 58.511719 " fill-opacity="1" fill-rule="nonzero"/></g><path fill="#ffffff" d="M 168.335938 45.566406 L 179.101562 45.566406 L 179.101562 56.40625 L 168.335938 56.40625 Z M 168.335938 45.566406 " fill-opacity="0.098" fill-rule="nonzero"/><path fill="#ffffff" d="M 168.335938 16.628906 L 179.101562 16.628906 L 179.101562 19.300781 L 168.335938 19.300781 Z M 168.335938 16.628906 " fill-opacity="0.498" fill-rule="nonzero"/><g clip-path="url(#c5d4e1c26a)"><path fill="#ffffff" d="M 168.738281 12.925781 L 173.71875 12.925781 L 173.71875 58.878906 L 168.738281 58.878906 Z M 168.738281 12.925781 " fill-opacity="0.098" fill-rule="nonzero"/></g><path fill="#056d65" d="M 188.378906 19.378906 L 196.210938 19.378906 L 196.210938 58.878906 L 188.378906 58.878906 Z M 188.378906 19.378906 " fill-opacity="1" fill-rule="nonzero"/><path fill="#07938c" d="M 190.734375 58.53125 C 190.734375 58.722656 190.578125 58.878906 190.386719 58.878906 L 182.917969 58.878906 C 182.726562 58.878906 182.574219 58.722656 182.574219 58.53125 L 182.574219 19.726562 C 182.574219 19.535156 182.726562 19.378906 182.917969 19.378906 L 190.386719 19.378906 C 190.578125 19.378906 190.734375 19.535156 190.734375 19.726562 Z M 190.734375 58.53125 " fill-opacity="1" fill-rule="nonzero"/><path fill="#ffffff" d="M 188.820312 43.109375 C 188.820312 44.3125 187.847656 45.289062 186.652344 45.289062 C 185.457031 45.289062 184.484375 44.3125 184.484375 43.109375 L 184.484375 33.859375 C 184.484375 32.652344 185.453125 31.675781 186.652344 31.675781 C 187.847656 31.675781 188.820312 32.652344 188.820312 33.859375 Z M 188.820312 43.109375 " fill-opacity="0.4" fill-rule="nonzero"/><path fill="#ffffff" d="M 183.40625 19.378906 L 186.652344 19.378906 L 186.652344 58.878906 L 183.40625 58.878906 Z M 183.40625 19.378906 " fill-opacity="0.098" fill-rule="nonzero"/><path fill="#ffffff" d="M 182.570312 22.304688 L 190.734375 22.304688 L 190.734375 22.710938 L 182.570312 22.710938 Z M 182.570312 22.304688 " fill-opacity="1" fill-rule="nonzero"/><path fill="#ffffff" d="M 182.570312 23.171875 L 190.734375 23.171875 L 190.734375 23.578125 L 182.570312 23.578125 Z M 182.570312 23.171875 " fill-opacity="1" fill-rule="nonzero"/><path fill="#ffffff" d="M 182.570312 54.597656 L 190.734375 54.597656 L 190.734375 55 L 182.570312 55 Z M 182.570312 54.597656 " fill-opacity="1" fill-rule="nonzero"/><path fill="#ffffff" d="M 182.570312 55.464844 L 190.734375 55.464844 L 190.734375 55.871094 L 182.570312 55.871094 Z M 182.570312 55.464844 " fill-opacity="1" fill-rule="nonzero"/></svg>