<svg xmlns="http://www.w3.org/2000/svg" xmlns:xlink="http://www.w3.org/1999/xlink" width="300" zoomAndPan="magnify" viewBox="0 0 224.87999 74.999997" height="100" preserveAspectRatio="xMidYMid meet" version="1.0"><defs><clipPath id="ae331de389"><path d="M 55 34 L 57.84375 34 L 57.84375 45 L 55 45 Z M 55 34 " clip-rule="nonzero"/></clipPath><clipPath id="389cfda0fe"><path d="M 21.863281 34 L 25 34 L 25 45 L 21.863281 45 Z M 21.863281 34 " clip-rule="nonzero"/></clipPath><clipPath id="fb06856f71"><path d="M 27 20.625 L 53 20.625 L 53 31 L 27 31 Z M 27 20.625 " clip-rule="nonzero"/></clipPath><clipPath id="46e7ecfb38"><path d="M 36 50 L 45 50 L 45 54.355469 L 36 54.355469 Z M 36 50 " clip-rule="nonzero"/></clipPath><clipPath id="a5bd01bdd2"><path d="M 104 18.65625 L 121 18.65625 L 121 40 L 104 40 Z M 104 18.65625 " clip-rule="nonzero"/></clipPath><clipPath id="6f2bcbca21"><path d="M 93.429688 40 L 131.660156 40 L 131.660156 56.136719 L 93.429688 56.136719 Z M 93.429688 40 " clip-rule="nonzero"/></clipPath><clipPath id="bd49e7213f"><path d="M 167.433594 24.390625 L 210.160156 24.390625 L 210.160156 54.375 L 167.433594 54.375 Z M 167.433594 24.390625 " clip-rule="nonzero"/></clipPath></defs><g clip-path="url(#ae331de389)"><path fill="#3b58d1" d="M 55.683594 34.339844 L 55.683594 44.945312 C 56.984375 43.90625 57.84375 41.945312 57.84375 39.644531 C 57.84375 37.34375 56.984375 35.382812 55.683594 34.339844 Z M 55.683594 34.339844 " fill-opacity="1" fill-rule="nonzero"/></g><path fill="#3b58d1" d="M 27.621094 47.179688 C 26.429688 47.179688 25.460938 46.214844 25.460938 45.027344 L 25.460938 34.261719 C 25.460938 33.074219 26.429688 32.109375 27.621094 32.109375 C 28.8125 32.109375 29.78125 33.074219 29.78125 34.261719 L 29.78125 45.027344 C 29.78125 46.214844 28.8125 47.179688 27.621094 47.179688 Z M 27.621094 47.179688 " fill-opacity="1" fill-rule="nonzero"/><g clip-path="url(#389cfda0fe)"><path fill="#3b58d1" d="M 24.023438 34.339844 C 22.722656 35.382812 21.863281 37.34375 21.863281 39.644531 C 21.863281 41.945312 22.722656 43.90625 24.023438 44.945312 Z M 24.023438 34.339844 " fill-opacity="1" fill-rule="nonzero"/></g><g clip-path="url(#fb06856f71)"><path fill="#3b58d1" d="M 52.085938 30.671875 C 52.222656 30.671875 52.351562 30.699219 52.484375 30.710938 C 51.183594 24.945312 46.019531 20.625 39.855469 20.625 C 33.6875 20.625 28.523438 24.945312 27.222656 30.710938 C 27.355469 30.699219 27.484375 30.671875 27.621094 30.671875 C 27.988281 30.671875 28.339844 30.742188 28.675781 30.847656 C 29.894531 25.8125 34.4375 22.058594 39.855469 22.058594 C 45.269531 22.058594 49.8125 25.8125 51.035156 30.847656 C 51.367188 30.742188 51.71875 30.671875 52.085938 30.671875 Z M 52.085938 30.671875 " fill-opacity="1" fill-rule="nonzero"/></g><path fill="#3b58d1" d="M 52.085938 47.179688 C 50.898438 47.179688 49.929688 46.214844 49.929688 45.027344 L 49.929688 34.261719 C 49.929688 33.074219 50.898438 32.109375 52.085938 32.109375 C 53.277344 32.109375 54.246094 33.074219 54.246094 34.261719 L 54.246094 45.027344 C 54.246094 46.214844 53.277344 47.179688 52.085938 47.179688 Z M 52.085938 47.179688 " fill-opacity="1" fill-rule="nonzero"/><g clip-path="url(#46e7ecfb38)"><path fill="#3b58d1" d="M 42.011719 54.355469 L 38.414062 54.355469 C 37.222656 54.355469 36.253906 53.390625 36.253906 52.203125 C 36.253906 51.015625 37.222656 50.050781 38.414062 50.050781 L 42.011719 50.050781 C 43.203125 50.050781 44.171875 51.015625 44.171875 52.203125 C 44.171875 53.390625 43.203125 54.355469 42.011719 54.355469 Z M 42.011719 54.355469 " fill-opacity="1" fill-rule="nonzero"/></g><path fill="#3b58d1" d="M 52.085938 48.613281 C 51.734375 48.613281 51.398438 48.546875 51.074219 48.453125 C 50.4375 50.402344 48.789062 51.484375 46.328125 51.484375 L 45.535156 51.484375 C 45.585938 51.71875 45.609375 51.957031 45.609375 52.203125 C 45.609375 52.449219 45.585938 52.6875 45.535156 52.921875 L 46.328125 52.921875 C 49.5625 52.921875 51.804688 51.300781 52.539062 48.570312 C 52.390625 48.589844 52.242188 48.613281 52.085938 48.613281 Z M 52.085938 48.613281 " fill-opacity="1" fill-rule="nonzero"/><g clip-path="url(#a5bd01bdd2)"><path fill="#3b58d1" d="M 104.253906 27.46875 C 104.253906 32.328125 107.957031 39.152344 112.542969 39.152344 C 117.132812 39.152344 120.832031 32.328125 120.832031 27.46875 C 120.832031 22.609375 117.132812 18.65625 112.542969 18.65625 C 107.957031 18.65625 104.253906 22.609375 104.253906 27.46875 Z M 104.253906 27.46875 " fill-opacity="1" fill-rule="nonzero"/></g><g clip-path="url(#6f2bcbca21)"><path fill="#3b58d1" d="M 129.207031 56.136719 C 130.539062 56.136719 131.578125 55.082031 131.488281 53.792969 C 131.28125 50.804688 130.6875 45.828125 129.089844 44.335938 C 127.582031 42.929688 118.613281 40.324219 118.613281 40.324219 L 112.542969 44.714844 L 106.476562 40.324219 C 106.476562 40.324219 97.507812 42.929688 95.996094 44.335938 C 94.398438 45.828125 93.808594 50.777344 93.597656 53.792969 C 93.511719 55.082031 94.546875 56.136719 95.878906 56.136719 Z M 129.207031 56.136719 " fill-opacity="1" fill-rule="nonzero"/></g><g clip-path="url(#bd49e7213f)"><path fill="#3b58d1" d="M 205.839844 32.722656 C 205 33.207031 203.035156 31.253906 203.035156 31.253906 C 203.035156 31.253906 202.328125 28.585938 203.171875 28.105469 L 207.378906 25.703125 C 205.570312 24.53125 203.179688 24.378906 201.179688 25.519531 C 199.230469 26.632812 198.160156 28.675781 198.203125 30.761719 C 191.394531 35.539062 184.152344 39.671875 176.566406 43.105469 C 174.777344 42.015625 172.457031 41.902344 170.507812 43.015625 C 168.507812 44.15625 167.433594 46.285156 167.542969 48.425781 L 171.75 46.027344 C 172.59375 45.546875 174.558594 47.496094 174.558594 47.496094 C 174.558594 47.496094 175.261719 50.164062 174.417969 50.648438 L 170.214844 53.042969 C 172.023438 54.21875 174.410156 54.371094 176.410156 53.230469 C 178.316406 52.144531 179.378906 50.167969 179.382812 48.132812 C 186.230469 43.324219 193.519531 39.167969 201.152344 35.714844 C 202.925781 36.734375 205.179688 36.820312 207.082031 35.738281 C 209.085938 34.59375 210.15625 32.46875 210.046875 30.324219 Z M 205.839844 32.722656 " fill-opacity="1" fill-rule="nonzero"/></g></svg>