<svg xmlns="http://www.w3.org/2000/svg" xmlns:xlink="http://www.w3.org/1999/xlink" width="300" zoomAndPan="magnify" viewBox="0 0 224.87999 74.999997" height="100" preserveAspectRatio="xMidYMid meet" version="1.0"><defs><clipPath id="2c62a303f2"><path d="M 11 15.058594 L 56.953125 15.058594 L 56.953125 60 L 11 60 Z M 11 15.058594 " clip-rule="nonzero"/></clipPath><clipPath id="f80d5cf894"><path d="M 94.097656 15.480469 L 137.574219 15.480469 L 137.574219 59.707031 L 94.097656 59.707031 Z M 94.097656 15.480469 " clip-rule="nonzero"/></clipPath><clipPath id="73842de8da"><path d="M 174.8125 18 L 213.792969 18 L 213.792969 56.949219 L 174.8125 56.949219 Z M 174.8125 18 " clip-rule="nonzero"/></clipPath></defs><g clip-path="url(#2c62a303f2)"><path fill="#fcc751" d="M 34.410156 59.726562 C 33.027344 59.683594 31.640625 59.582031 30.269531 59.394531 C 28.179688 59.082031 26.226562 58.21875 24.285156 57.429688 C 18.472656 54.929688 13.378906 50.128906 11.871094 43.859375 C 10.488281 37.445312 12.398438 29.972656 16.097656 24.617188 C 18.386719 21.453125 21.574219 18.894531 25.144531 17.296875 C 27.757812 16.265625 30.515625 15.484375 33.3125 15.183594 C 34.757812 15.0625 36.207031 15.171875 37.644531 15.328125 C 39.425781 15.492188 41.296875 15.695312 42.738281 16.859375 C 43.605469 17.429688 43.246094 18.78125 42.175781 18.765625 C 41.628906 18.75 41.148438 18.464844 40.648438 18.277344 C 39.195312 17.859375 37.648438 17.910156 36.148438 17.800781 C 34.035156 17.648438 31.945312 18.015625 29.929688 18.621094 C 28.527344 19.035156 27.117188 19.433594 25.800781 20.074219 C 24.09375 20.910156 22.550781 22.042969 21.125 23.296875 C 16.097656 27.886719 13.917969 35.15625 14.484375 41.816406 C 15.128906 46.269531 18.011719 50.191406 21.730469 52.65625 C 24.324219 54.3125 27.167969 55.605469 30.160156 56.359375 C 32.164062 56.707031 34.21875 56.816406 36.25 56.742188 C 39.855469 56.4375 43.265625 54.550781 45.949219 52.25 C 49.03125 49.609375 51.0625 45.953125 52.503906 42.214844 C 53.773438 38.046875 53.292969 33.433594 51.636719 29.441406 C 51.226562 28.195312 50.546875 27.105469 49.691406 26.117188 C 48.652344 24.527344 47.183594 23.347656 45.746094 22.136719 C 45.375 21.820312 44.988281 21.523438 44.589844 21.234375 C 43.542969 20.5 44.035156 18.714844 45.300781 18.589844 C 46.449219 18.476562 47.316406 19.691406 48.164062 20.308594 C 48.675781 20.742188 49.207031 21.148438 49.707031 21.59375 C 50.695312 22.46875 51.488281 23.523438 52.265625 24.578125 C 52.714844 25.148438 53.171875 25.699219 53.523438 26.335938 C 55.996094 31.226562 56.949219 37 55.585938 42.347656 C 54.265625 46.421875 52.082031 50.3125 49.085938 53.40625 C 45.1875 57.179688 39.976562 60.03125 34.410156 59.726562 Z M 29.875 36.445312 C 28.972656 36.324219 28.378906 35.371094 28.679688 34.515625 C 28.851562 33.378906 29.015625 32.242188 29.222656 31.109375 C 29.527344 29.839844 29.460938 28.277344 30.457031 27.3125 C 30.972656 26.882812 31.789062 26.972656 32.132812 27.566406 C 32.410156 27.996094 32.308594 28.484375 32.234375 28.953125 C 32.097656 29.898438 32.011719 30.851562 31.890625 31.800781 C 31.746094 32.929688 31.636719 34.0625 31.527344 35.195312 C 31.441406 35.988281 30.648438 36.550781 29.875 36.445312 Z M 39.152344 37.328125 C 37.472656 36.933594 37.878906 35.597656 38.078125 34.328125 C 38.242188 33.109375 38.394531 31.886719 38.644531 30.683594 C 38.863281 29.808594 38.84375 28.835938 39.335938 28.058594 C 40 27.148438 41.542969 27.457031 41.816406 28.542969 C 41.941406 28.988281 41.824219 29.460938 41.753906 29.90625 C 41.613281 30.859375 41.40625 31.796875 41.273438 32.75 C 41.132812 33.828125 41.007812 34.910156 40.839844 35.984375 C 40.765625 36.820312 39.972656 37.445312 39.152344 37.328125 Z M 32.613281 48.09375 C 31.210938 47.851562 29.960938 47.128906 28.800781 46.34375 C 27.820312 45.726562 27.082031 44.8125 26.417969 43.882812 C 25.78125 42.910156 24.957031 41.277344 25.359375 40.121094 C 25.65625 39.355469 26.734375 39.042969 27.375 39.578125 C 27.988281 40.105469 28.078125 40.976562 28.453125 41.660156 C 28.851562 42.351562 29.382812 42.976562 29.953125 43.539062 C 31.96875 45.179688 34.3125 45.777344 36.828125 44.957031 C 38.335938 44.355469 39.378906 42.996094 40.261719 41.699219 C 41.03125 40.308594 43.28125 41.078125 43.03125 42.648438 C 42.894531 43.496094 41.175781 45.480469 40.480469 46.078125 C 38.429688 48.082031 35.367188 48.625 32.613281 48.09375 Z M 32.613281 48.09375 " fill-opacity="1" fill-rule="nonzero"/></g><g clip-path="url(#f80d5cf894)"><path fill="#f79ab4" d="M 123.355469 53.40625 C 124.070312 50.898438 122.929688 48.164062 121.832031 45.9375 C 121.242188 44.738281 120.46875 43.726562 119.5625 42.746094 C 119.136719 42.285156 119.089844 41.734375 119.496094 41.246094 C 119.574219 41.15625 120.128906 40.464844 120.75 40.726562 C 121.605469 40.992188 122.449219 41.28125 123.304688 41.542969 C 124.171875 41.804688 125.035156 42.136719 125.925781 42.269531 C 128.230469 42.617188 130.378906 42.042969 132.355469 40.871094 C 133.863281 39.980469 135.054688 38.667969 135.617188 36.992188 C 135.765625 36.554688 135.882812 36.101562 135.921875 35.636719 C 136.070312 33.894531 134.757812 32.242188 133.355469 31.355469 C 131.929688 30.457031 130.359375 30.34375 128.777344 30.546875 C 126.152344 30.882812 121.457031 33.828125 121.203125 34.019531 C 120.707031 34.394531 120.421875 34.660156 119.875 34.335938 C 119.347656 34.027344 119.265625 33.5625 119.582031 33.007812 C 121.082031 30.382812 122.347656 27.65625 122.882812 24.65625 C 123.183594 22.960938 123.324219 21.253906 122.507812 19.625 C 121.8125 18.238281 120.621094 17.46875 119.171875 17.289062 C 117.085938 17.03125 115.351562 17.960938 113.9375 19.414062 C 113.003906 20.371094 112.582031 21.648438 112.234375 22.921875 C 111.546875 25.449219 111.582031 31.042969 111.605469 31.246094 C 111.664062 31.789062 111.570312 32.203125 111.121094 32.332031 C 110.355469 32.550781 109.867188 32.347656 109.644531 31.777344 C 109.484375 31.371094 109.148438 30.734375 108.921875 30.359375 C 108 28.859375 106.867188 27.53125 105.613281 26.289062 C 104.71875 25.398438 103.683594 24.789062 102.5 24.429688 C 100.714844 23.886719 98.867188 24.914062 98.34375 26.699219 C 98.046875 27.714844 98.054688 28.75 98.289062 29.753906 C 99.128906 33.367188 100.929688 36.246094 104.550781 37.679688 C 105.074219 37.890625 105.273438 38.25 105.152344 38.675781 C 105.035156 39.089844 104.683594 39.242188 104.167969 39.257812 C 103.613281 39.277344 103.027344 39.304688 102.515625 39.496094 C 101.792969 39.761719 101.101562 40.136719 100.445312 40.539062 C 98.414062 41.789062 96.976562 43.519531 96.269531 45.816406 C 95.503906 48.316406 96.082031 50.105469 98.316406 51.871094 C 98.636719 52.125 99.210938 52.328125 99.621094 52.375 C 101.984375 52.65625 103.96875 51.699219 105.546875 50.105469 C 106.921875 48.71875 107.878906 46.984375 108.292969 45.011719 C 108.410156 44.445312 108.800781 44.167969 109.273438 44.273438 C 109.71875 44.375 109.910156 44.757812 109.839844 45.324219 C 109.742188 46.121094 109.613281 46.921875 109.597656 47.71875 C 109.570312 49.136719 109.875 50.507812 110.417969 51.8125 C 111.71875 54.929688 113.949219 57.039062 117.296875 57.75 C 119.03125 58.117188 120.59375 57.660156 121.808594 56.234375 C 122.457031 55.46875 123.054688 54.457031 123.355469 53.40625 Z M 122.4375 31.257812 C 122.617188 31.148438 122.742188 31.078125 122.816406 31.039062 C 124.765625 29.894531 126.792969 29.152344 129.023438 28.9375 C 131.292969 28.714844 133.445312 29.148438 135.179688 30.765625 C 136.511719 32.007812 137.574219 33.441406 137.503906 35.40625 C 137.441406 37.128906 136.84375 38.664062 135.738281 39.992188 C 133.652344 42.507812 130.894531 43.675781 127.695312 43.914062 C 125.917969 44.046875 124.230469 43.636719 122.597656 42.972656 C 122.3125 42.855469 121.863281 42.664062 121.535156 42.558594 C 121.617188 42.683594 121.929688 42.996094 121.992188 43.066406 C 122.289062 43.421875 122.59375 43.9375 122.824219 44.339844 C 123.074219 44.777344 123.191406 45.0625 123.394531 45.523438 C 124.09375 47.132812 124.707031 48.824219 125 50.558594 C 125.378906 52.777344 124.800781 55.089844 123.378906 56.847656 C 123.019531 57.292969 122.617188 57.703125 122.183594 58.078125 C 120.699219 59.359375 118.890625 59.707031 117.015625 59.304688 C 113.015625 58.453125 110.382812 55.953125 108.886719 52.222656 C 108.539062 51.359375 108.28125 50.398438 108.0625 49.472656 C 107.902344 49.675781 107.753906 49.890625 107.621094 50.089844 C 106.378906 51.980469 104.582031 53.023438 102.496094 53.671875 C 99.558594 54.582031 97.441406 53.8125 95.632812 51.324219 C 94.1875 49.339844 94.101562 47.214844 94.871094 44.992188 C 95.742188 42.488281 97.367188 40.582031 99.609375 39.191406 C 100.265625 38.785156 100.957031 38.4375 101.664062 38.046875 C 101.589844 37.984375 101.542969 37.921875 101.484375 37.871094 C 98.9375 35.53125 97.199219 32.921875 96.652344 29.527344 C 96.484375 28.476562 96.523438 27.421875 96.789062 26.382812 C 97.449219 23.820312 100.089844 22.210938 102.664062 22.839844 C 104.292969 23.238281 105.683594 24.066406 106.84375 25.296875 C 107.875 26.390625 108.96875 27.429688 109.734375 28.746094 C 109.761719 28.792969 109.828125 28.875 109.90625 28.992188 C 109.949219 28.191406 109.992188 27.375 110.039062 26.636719 C 110.164062 24.710938 110.515625 22.828125 111.191406 21.015625 C 111.964844 18.953125 113.429688 17.296875 115.457031 16.410156 C 116.453125 15.972656 117.523438 15.699219 118.613281 15.652344 C 122.160156 15.492188 124.582031 18.832031 124.652344 22.085938 C 124.707031 24.734375 124.039062 27.214844 123.011719 29.625 C 122.820312 30.074219 122.683594 30.691406 122.4375 31.257812 " fill-opacity="1" fill-rule="nonzero"/></g><path fill="#f79ab4" d="M 116.246094 38.878906 C 116.234375 39.488281 115.945312 40.054688 115.285156 40.351562 C 114.628906 40.648438 113.824219 40.503906 113.25 40.070312 C 112.617188 39.585938 112.078125 38.636719 112.339844 37.839844 C 112.585938 37.085938 113.359375 36.457031 114.167969 36.457031 C 115.367188 36.457031 116.273438 37.742188 116.246094 38.878906 " fill-opacity="1" fill-rule="nonzero"/><g clip-path="url(#73842de8da)"><path fill="#998ec5" d="M 192.375 33.3125 C 192.472656 33.144531 192.539062 33.035156 192.597656 32.921875 C 194.886719 28.429688 198.054688 24.65625 201.851562 21.394531 C 202.78125 20.597656 203.792969 19.921875 204.960938 19.503906 C 206.917969 18.804688 208.746094 19.097656 210.40625 20.320312 C 212.175781 21.628906 213.148438 23.433594 213.480469 25.601562 C 213.792969 27.683594 213.441406 29.710938 212.863281 31.695312 C 211.316406 37.011719 208.90625 41.914062 205.777344 46.460938 C 204.304688 48.601562 202.710938 50.644531 200.878906 52.480469 C 199.792969 53.574219 198.617188 54.554688 197.289062 55.34375 C 195.824219 56.210938 194.265625 56.796875 192.546875 56.863281 C 190.359375 56.949219 188.453125 56.234375 186.777344 54.851562 C 185.578125 53.867188 184.636719 52.65625 183.828125 51.339844 C 182.816406 49.691406 182.058594 47.921875 181.394531 46.109375 C 179.097656 39.832031 177.078125 33.457031 175.367188 26.988281 C 175.054688 25.804688 174.8125 24.601562 174.855469 23.367188 C 174.878906 22.660156 175.011719 21.96875 175.269531 21.304688 C 176.164062 19.019531 178.21875 17.96875 180.582031 18.597656 C 181.707031 18.894531 182.707031 19.441406 183.621094 20.148438 C 185.414062 21.523438 186.851562 23.234375 188.113281 25.097656 C 189.59375 27.285156 190.742188 29.648438 191.804688 32.054688 C 191.988281 32.457031 192.171875 32.859375 192.375 33.3125 Z M 192.148438 55.992188 C 192.570312 55.953125 192.992188 55.933594 193.410156 55.871094 C 194.933594 55.628906 196.285156 54.964844 197.550781 54.109375 C 199.074219 53.070312 200.394531 51.808594 201.597656 50.417969 C 204.59375 46.960938 207.085938 43.160156 209.066406 39.027344 C 210.414062 36.21875 211.59375 33.339844 212.3125 30.296875 C 212.71875 28.585938 212.890625 26.855469 212.476562 25.117188 C 212.007812 23.148438 210.964844 21.585938 209.171875 20.601562 C 208.074219 19.996094 206.90625 19.859375 205.691406 20.191406 C 204.433594 20.535156 203.367188 21.226562 202.40625 22.078125 C 201.492188 22.882812 200.601562 23.722656 199.746094 24.585938 C 197.203125 27.175781 195.03125 30.042969 193.410156 33.308594 C 193.21875 33.691406 193.046875 34.082031 192.867188 34.46875 C 192.761719 34.695312 192.660156 34.910156 192.359375 34.902344 C 192.058594 34.894531 191.96875 34.667969 191.878906 34.441406 C 191.84375 34.355469 191.804688 34.269531 191.769531 34.1875 C 191.113281 32.738281 190.476562 31.277344 189.789062 29.839844 C 188.730469 27.652344 187.503906 25.558594 185.949219 23.683594 C 185 22.542969 183.957031 21.492188 182.742188 20.628906 C 181.941406 20.054688 181.085938 19.589844 180.113281 19.375 C 178.472656 19.019531 176.988281 19.742188 176.257812 21.257812 C 175.925781 21.957031 175.785156 22.703125 175.75 23.464844 C 175.703125 24.476562 175.886719 25.460938 176.144531 26.429688 C 177.90625 33.078125 179.953125 39.632812 182.339844 46.082031 C 183.011719 47.890625 183.792969 49.648438 184.839844 51.277344 C 185.535156 52.359375 186.328125 53.351562 187.320312 54.171875 C 188.722656 55.335938 190.3125 55.980469 192.148438 55.992188 Z M 192.148438 55.992188 " fill-opacity="1" fill-rule="nonzero"/></g><path fill="#998ec5" d="M 193.089844 41.3125 C 193.605469 39.890625 194.242188 38.53125 195.011719 37.242188 C 196.785156 34.253906 199.03125 31.660156 201.578125 29.324219 C 201.980469 28.953125 202.457031 28.652344 202.933594 28.371094 C 203.417969 28.089844 203.960938 27.972656 204.527344 27.996094 C 205.8125 28.046875 206.613281 28.816406 206.730469 30.109375 C 206.902344 32.0625 206.617188 33.957031 206.003906 35.808594 C 205.117188 38.484375 203.640625 40.824219 201.855469 42.976562 C 200.019531 45.191406 197.949219 47.171875 195.84375 49.117188 C 195.625 49.316406 195.386719 49.492188 195.140625 49.660156 C 194.183594 50.3125 193.160156 50.417969 192.085938 50.003906 C 191.296875 49.699219 190.625 49.214844 190.023438 48.632812 C 189.15625 47.789062 188.445312 46.816406 187.832031 45.777344 C 185.433594 41.746094 183.640625 37.449219 182.449219 32.90625 C 182.335938 32.480469 182.289062 32.027344 182.289062 31.585938 C 182.292969 30.980469 182.5625 30.476562 183.078125 30.132812 C 183.566406 29.808594 184.046875 29.816406 184.515625 30.167969 C 184.675781 30.289062 184.824219 30.433594 184.957031 30.585938 C 187.183594 33.164062 189.347656 35.789062 191.316406 38.570312 C 191.941406 39.441406 192.484375 40.363281 193.089844 41.3125 Z M 193.089844 41.3125 " fill-opacity="1" fill-rule="nonzero"/></svg>